<svg xmlns="http://www.w3.org/2000/svg" xmlns:xlink="http://www.w3.org/1999/xlink" version="1.1" enable-background="new 0 0 90 90" xml:space="preserve" width="82" height="82" style=""><rect id="backgroundrect" width="100%" height="100%" x="0" y="0" fill="none" stroke="none" class="" style=""/><g class="currentLayer" style=""><title>Layer 1</title><path d="M64.9735280842781,66.1396821937561 c0.18400000000000014,-1.07 0.16200000000000017,-2.076 -0.06300000000000007,-3.022 c1.403,-0.039000000000000035 2.81,-0.10400000000000002 4.216,-0.2 h0.015000000000000015 c2.081,-0.17600000000000013 3.806,-1.033 5.175,-2.572 c1.415,-1.585 2.05,-3.428 1.9060000000000001,-5.532 c-0.11100000000000007,-1.6600000000000001 -0.6850000000000008,-3.105 -1.7200000000000002,-4.339 c0.786,-0.10800000000000007 1.318,-0.21800000000000014 1.596,-0.32500000000000034 l0.031000000000000034,-0.015000000000000015 c2.194,-0.8180000000000005 3.873,-2.233 5.035,-4.245 l0.016000000000000018,-0.015000000000000015 c1.278,-2.178 1.365,-4.537 0.264,-7.082 v0.01700000000000002 c-1.027,-2.588 -3.253,-4.158 -6.679,-4.71 h0.031000000000000034 c-0.5,-0.09600000000000014 -1.053,-0.16700000000000023 -1.657,-0.21800000000000014 c0.14600000000000013,-0.2290000000000002 0.28,-0.47300000000000025 0.402,-0.7290000000000005 l0.016000000000000018,-0.031000000000000034 c0.8500000000000005,-1.874 0.9470000000000005,-3.79 0.29500000000000026,-5.748 c-0.00600000000000001,-0.012000000000000009 -0.011000000000000015,-0.028000000000000018 -0.01700000000000002,-0.04600000000000006 c-0.7090000000000005,-1.952 -1.959,-3.394 -3.749,-4.323 h0.016000000000000018 c-1.561,-0.8870000000000007 -3.745,-1.202 -6.554,-0.9450000000000005 V22.043682193756105 c-2.04,0.1660000000000002 -10.494,2.019 -25.364,5.562 c0.04200000000000004,-0.07200000000000002 0.08300000000000009,-0.14500000000000013 0.12400000000000007,-0.21700000000000014 v0.016000000000000018 c1.072,-1.8170000000000002 1.8930000000000002,-3.815 2.463,-5.997 l-0.015000000000000015,0.016000000000000018 c0.6790000000000008,-2.435 0.4400000000000003,-5.033 -0.7130000000000005,-7.792 c-1.34,-3.275 -3.849,-4.681 -7.531,-4.215 h-0.015000000000000015 c-3.5460000000000003,0.3490000000000004 -5.838,2.6990000000000007 -6.8790000000000004,7.05 c-0.6550000000000007,2.774 -1.306,4.612 -1.953,5.516 l-0.014000000000000009,0.016000000000000018 c-0.7170000000000005,0.8140000000000005 -1.8900000000000001,1.6820000000000008 -3.518,2.603 c-0.010000000000000009,0.004000000000000004 -0.02100000000000002,0.009000000000000015 -0.031000000000000034,0.015000000000000015 c-2.329,1.27 -4.142,3.202 -5.438,5.795 v-0.016000000000000018 c-0.39300000000000035,0.7650000000000007 -0.7390000000000005,1.549 -1.039,2.355 c-1.291,-0.8370000000000005 -2.417,-1.215 -3.3770000000000002,-1.13 c-3.204,-0.127 -5.767,1.7690000000000001 -7.6850000000000005,5.686 l0.015000000000000015,-0.016000000000000018 c-1.351,2.668 -2.229,5.627 -2.6340000000000003,8.879 v0.016000000000000018 c-0.3940000000000004,3.283 -0.032000000000000035,6.578 1.084,9.885 l0.015000000000000015,0.016000000000000018 c1.25,3.898 4.39,5.929 9.42,6.089 c0.267,0.009000000000000015 0.515,-0.027000000000000034 0.7440000000000005,-0.10700000000000007 c4.265,7.504 12.808,9.647 25.626,6.43 c6.458,2.102 13.116,3.481 19.973,4.136 h0.015000000000000015 c1.941,0.18600000000000014 3.708,-0.35600000000000026 5.299,-1.6270000000000002 C63.715528084278105,69.72468219375611 64.66552808427811,68.1046821937561 64.9735280842781,66.1396821937561 zM37.61052808427811,64.23368219375611 c-0.406,-0.133 -0.8140000000000005,-0.14200000000000004 -1.224,-0.031000000000000034 c-12.597,3.298 -20.276,0.5710000000000005 -23.039,-8.181 c-0.16700000000000023,-0.5630000000000005 -0.506,-0.986 -1.023,-1.27 c-0.519,-0.28200000000000025 -1.062,-0.3390000000000004 -1.6260000000000003,-0.17200000000000001 c-0.5640000000000005,0.1660000000000002 -0.988,0.506 -1.271,1.023 c-0.28300000000000025,0.519 -0.3390000000000004,1.061 -0.171,1.6260000000000003 c0.053000000000000054,0.19200000000000017 0.11000000000000007,0.38300000000000034 0.171,0.5740000000000005 c-2.206,-0.32100000000000034 -3.657,-1.358 -4.354,-3.114 l0.016000000000000018,0.016000000000000018 c-0.907,-2.68 -1.207,-5.351 -0.8990000000000007,-8.012 c0.3380000000000004,-2.738 1.072,-5.233 2.2,-7.481 l0.016000000000000018,-0.01700000000000002 c1.016,-2.076 2.2960000000000003,-3.177 3.843,-3.301 c0.55,0.10600000000000002 1.283,0.54 2.2,1.303 c-0.055000000000000035,0.3140000000000003 -0.1,0.6290000000000006 -0.14,0.9440000000000005 c-0.07300000000000002,0.5850000000000005 0.07200000000000002,1.11 0.4340000000000003,1.58 c0.36500000000000027,0.465 0.8400000000000005,0.7340000000000005 1.425,0.807 c0.5850000000000005,0.07300000000000002 1.113,-0.07100000000000002 1.581,-0.4350000000000003 c0.464,-0.36400000000000027 0.7330000000000005,-0.8390000000000005 0.806,-1.425 c0.278,-2.266 0.918,-4.373 1.921,-6.322 v-0.016000000000000018 c0.8870000000000007,-1.775 2.122,-3.103 3.7030000000000003,-3.981 l0.031000000000000034,-0.016000000000000018 c2.228,-1.2570000000000001 3.808,-2.467 4.741,-3.625 l0.016000000000000018,-0.016000000000000018 c1,-1.1280000000000001 1.935,-3.541 2.805,-7.236 c0.528,-2.214 1.618,-3.48 3.269,-3.7960000000000003 h0.016000000000000018 c1.475,-0.19000000000000014 2.492,0.3470000000000004 3.052,1.612 c0.7460000000000006,1.784 0.922,3.463 0.526,5.036 l-0.016000000000000018,0.015000000000000015 c-0.462,1.786 -1.1280000000000001,3.423 -1.999,4.912 v0.016000000000000018 c-1.07,1.8330000000000002 -1.726,3.455 -1.967,4.865 c-0.013000000000000015,0.04200000000000004 -0.023000000000000034,0.08300000000000009 -0.031000000000000034,0.12400000000000007 c-0.014000000000000009,0.08000000000000007 -0.025000000000000026,0.1640000000000002 -0.031000000000000034,0.24800000000000014 c-0.048000000000000036,0.6820000000000008 -0.027000000000000034,1.9580000000000002 0.06200000000000006,3.829 v0.030000000000000034 c0.055000000000000035,1.47 -0.4,3.313 -1.363,5.531 h-0.015000000000000015 c-0.98,2.169 -2.855,3.931 -5.625,5.283 c-0.528,0.261 -0.8900000000000007,0.6670000000000008 -1.084,1.224 c-0.1950000000000002,0.556 -0.1640000000000002,1.098 0.09300000000000014,1.6280000000000001 c0.259,0.529 0.6680000000000008,0.8920000000000007 1.224,1.085 c0.553,0.19400000000000017 1.095,0.1640000000000002 1.6270000000000002,-0.09400000000000014 c3.842,-1.87 6.409,-4.343 7.7,-7.421 h-0.015000000000000015 c1.302,-2.974 1.8800000000000003,-5.458 1.735,-7.453 v-0.030000000000000034 c-0.032000000000000035,-0.6880000000000008 -0.05400000000000006,-1.282 -0.06300000000000007,-1.782 c15.939,-3.8120000000000003 24.957,-5.811 27.052,-5.997 v-0.016000000000000018 c1.778,-0.15600000000000014 3.167,0.003000000000000005 4.168,0.48000000000000026 h0.01700000000000002 c0.798,0.42800000000000027 1.361,1.078 1.6880000000000006,1.953 c0.00600000000000001,0.015000000000000015 0.011000000000000015,0.030000000000000034 0.01700000000000002,0.045000000000000054 c0.276,0.8660000000000005 0.2290000000000002,1.713 -0.14,2.541 c-0.005000000000000005,0.011000000000000015 -0.011000000000000015,0.022000000000000033 -0.016000000000000018,0.032000000000000035 c-0.36900000000000027,0.7600000000000007 -0.9470000000000005,1.286 -1.735,1.581 l0.016000000000000018,-0.01700000000000002 c-1.2810000000000001,0.464 -2.573,0.8880000000000007 -3.874,1.271 c-0.039000000000000035,0.010000000000000009 -0.08000000000000007,0.02100000000000002 -0.12300000000000007,0.031000000000000034 c-0.203,0.07100000000000002 -0.7670000000000007,0.24100000000000013 -1.689,0.512 c-0.047000000000000035,0.00700000000000001 -0.09400000000000014,0.018000000000000016 -0.14,0.031000000000000034 c-4.471,1.304 -10.436,2.518 -17.896,3.641 c-0.5860000000000005,0.0860000000000001 -1.056,0.36400000000000027 -1.409,0.8360000000000005 c-0.35000000000000026,0.47900000000000026 -0.47900000000000026,1.011 -0.38800000000000034,1.597 c0.0850000000000001,0.5800000000000005 0.36400000000000027,1.045 0.8370000000000005,1.3960000000000001 c0.47500000000000026,0.3470000000000004 1.002,0.47700000000000026 1.58,0.38700000000000034 c7.67,-1.1440000000000001 13.811,-2.384 18.422,-3.7190000000000003 c4.845,-0.787 8.444,-0.984 10.799,-0.5890000000000005 h0.032000000000000035 c1.6990000000000007,0.272 2.841,0.996 3.424,2.169 v0.015000000000000015 c0.509,1.175 0.49300000000000027,2.265 -0.047000000000000035,3.271 l0.016000000000000018,-0.01700000000000002 c-0.6500000000000007,1.119 -1.585,1.9100000000000001 -2.805,2.371 c-1.56,0.49400000000000027 -11.311,1.166 -29.252,2.015 c-0.026000000000000034,-0.002000000000000002 -0.05200000000000005,-0.002000000000000002 -0.07700000000000007,0 c-0.5760000000000005,0.024000000000000018 -1.062,0.251 -1.457,0.6820000000000008 c-0.3990000000000004,0.4320000000000003 -0.5910000000000005,0.9380000000000005 -0.5730000000000005,1.5190000000000001 c0.02100000000000002,0.5840000000000005 0.24200000000000013,1.08 0.6660000000000008,1.487 c0.42200000000000026,0.402 0.923,0.5990000000000005 1.5030000000000001,0.5880000000000005 c0.026000000000000034,0 0.05200000000000005,0 0.07800000000000007,0 c14.42,-0.2270000000000002 22.012,-0.36000000000000026 22.776,-0.402 h0.030000000000000034 c0.918,-0.06500000000000007 1.7240000000000002,0.19200000000000017 2.417,0.774 l0.016000000000000018,0.015000000000000015 c0.6990000000000008,0.6150000000000005 1.081,1.381 1.146,2.295 c0.06300000000000007,0.913 -0.21100000000000013,1.713 -0.8210000000000005,2.401 c-0.6100000000000005,0.6870000000000008 -1.3800000000000001,1.068 -2.308,1.146 c-1.452,0.10300000000000002 -2.903,0.17300000000000001 -4.354,0.21700000000000014 c-1.028,0.019000000000000017 -2.088,0.029000000000000026 -3.176,0.030000000000000034 c-0.10200000000000002,-0.009000000000000015 -0.20500000000000004,-0.009000000000000015 -0.3100000000000003,0 c-5.249,-0.00700000000000001 -11.275,-0.3730000000000003 -18.082,-1.1 c-0.5840000000000005,-0.06200000000000006 -1.105,0.09300000000000014 -1.565,0.465 c-0.461,0.36800000000000027 -0.7250000000000005,0.8450000000000005 -0.79,1.425 c-0.06200000000000006,0.5850000000000005 0.09300000000000014,1.105 0.465,1.564 c0.36800000000000027,0.461 0.8440000000000005,0.7260000000000005 1.4260000000000002,0.791 c6.673,0.7140000000000005 12.618,1.09 17.833,1.131 c0.009000000000000015,0.015000000000000015 0.020000000000000018,0.030000000000000034 0.031000000000000034,0.047000000000000035 c0.453,0.6490000000000007 0.6080000000000005,1.3940000000000001 0.465,2.23 v0.01700000000000002 c-0.14600000000000013,0.8870000000000007 -0.5790000000000005,1.6190000000000002 -1.302,2.198 c-0.6770000000000008,0.544 -1.4260000000000002,0.788 -2.246,0.7300000000000005 C50.47652808427811,67.7386821937561 43.94252808427811,66.35268219375611 37.61052808427811,64.23368219375611 z" id="svg_1" class=""/></g></svg>