<svg xmlns="http://www.w3.org/2000/svg" xmlns:xlink="http://www.w3.org/1999/xlink" version="1.1" enable-background="new 0 0 90 90" xml:space="preserve" width="82" height="82"><rect id="backgroundrect" width="100%" height="100%" x="0" y="0" fill="none" stroke="none" class="" style=""/><g class="currentLayer" style=""><title>Layer 1</title><path d="M53.00814937591553,71.61643613815308 c2.003,-1.734 2.992,-3.816 2.967,-6.243 c0,-0.06400000000000004 0,-0.128 0,-0.1920000000000001 c2.535,-0.3470000000000003 4.866,-1.284 6.996,-2.813 l0.02000000000000001,-0.02000000000000001 c3.251,-2.404 4.844,-5.301 4.7780000000000005,-8.69 c-0.003000000000000003,-0.811 -0.09200000000000008,-1.602 -0.27,-2.371 c0.29600000000000015,-0.1920000000000001 0.6110000000000003,-0.3980000000000003 0.9430000000000003,-0.6150000000000003 c0.03900000000000002,-0.035 0.07800000000000004,-0.06600000000000004 0.11600000000000005,-0.09700000000000009 c2.146,-1.501 3.22,-3.903 3.218,-7.208 c0.07600000000000004,-1.843 -0.5720000000000003,-3.7190000000000003 -1.945,-5.626 c0.6550000000000004,-0.37800000000000017 1.284,-0.795 1.8880000000000003,-1.252 c0.31300000000000017,-0.22000000000000008 0.6730000000000006,-0.503 1.079,-0.8480000000000003 c0.14800000000000008,-0.128 0.28300000000000014,-0.27 0.405,-0.42500000000000016 c0.02800000000000001,-0.03800000000000001 0.06100000000000003,-0.08300000000000005 0.09700000000000009,-0.135 c3.188,-2.917 4.7490000000000006,-5.816 4.682,-8.689 c0.16700000000000012,-2.975 -1.368,-5.859 -4.605,-8.654 l-0.02000000000000001,-0.01800000000000001 c-5.298,-4.744 -12.023,-5.682 -20.176,-2.813 c-0.18100000000000008,-0.1970000000000001 -0.36700000000000016,-0.3960000000000003 -0.559,-0.5980000000000003 v0.02000000000000001 c-4.146,-4.325 -8.707,-6.465 -13.682,-6.418 c-3.513,-0.09500000000000008 -7.509,1.677 -11.986,5.319 l-0.02000000000000001,0.02000000000000001 c-2.653,2.049 -4.875,5.221 -6.667,9.519 c-1.081,-0.5770000000000003 -2.166,-0.8400000000000003 -3.257,-0.79 c-3.985,-0.15700000000000008 -7.171,2.199 -9.559,7.073 l0.02000000000000001,-0.02000000000000001 c-1.6790000000000007,3.345 -2.771,7.026 -3.275,11.042 v0.01800000000000001 c-0.48800000000000016,4.083 -0.03900000000000002,8.194 1.3490000000000002,12.333 l0.02000000000000001,0.02000000000000001 c1.444,4.51 4.92,7.007 10.425,7.496 c0.5630000000000003,1.105 1.296,2.262 2.197,3.469 l0.01900000000000001,0.02000000000000001 c3.102,4.425 8.317,6.025 15.647,4.798 c0.537,0.6110000000000003 1.154,1.228 1.851,1.851 v0.02000000000000001 c3.059,2.744 6.238,4.073 9.539,3.989 h0.03800000000000001 c3.379,-0.06600000000000004 5.942,-0.8760000000000003 7.689,-2.4290000000000003 C52.98014937591553,71.64043613815308 52.994149375915526,71.62843613815308 53.00814937591553,71.61643613815308 zM45.93614937591553,50.95943613815307 c0.03800000000000001,0.02200000000000002 0.07600000000000004,0.04800000000000002 0.11500000000000005,0.07700000000000004 c0.258,0.15300000000000008 0.515,0.30900000000000016 0.771,0.462 c1.92,1.1560000000000001 3.943,1.972 6.069,2.447 c1.55,0.3490000000000003 3.143,0.522 4.779,0.52 c1.6640000000000001,-0.0010000000000000007 3.257,-0.2260000000000001 4.779,-0.6740000000000006 c-0.11000000000000004,1.6350000000000002 -0.978,3.055 -2.6020000000000003,4.259 l-0.02000000000000001,0.02000000000000001 c-1.819,1.299 -3.861,1.948 -6.128,1.9460000000000002 c-2.688,-0.0010000000000000007 -5.194,-0.7090000000000003 -7.516,-2.119 l0.02000000000000001,0.01800000000000001 c-2.361,-1.469 -3.575,-3.363 -3.6420000000000003,-5.6850000000000005 c-0.0010000000000000007,-0.931 0.29400000000000015,-1.624 0.8860000000000003,-2.08 h0.03900000000000002 c0.259,-0.1660000000000001 0.548,-0.29600000000000015 0.8670000000000003,-0.3860000000000002 C44.836149375915525,50.175436138153074 45.364149375915524,50.574436138153075 45.93614937591553,50.95943613815307 zM53.33514937591553,39.59043613815307 c0.10700000000000004,0.03200000000000002 0.21000000000000008,0.05700000000000002 0.30900000000000016,0.07700000000000004 c0.28200000000000014,0.05100000000000003 0.5650000000000003,0.10200000000000002 0.8480000000000003,0.15300000000000008 l-0.135,-0.03800000000000001 c2.104,0.501 4.225,0.6810000000000006 6.359,0.539 h0.01900000000000001 c1.278,-0.07400000000000002 2.557,-0.259 3.8360000000000003,-0.559 c1.166,1.2570000000000001 1.795,2.458 1.8890000000000002,3.603 c-0.0020000000000000013,1.256 -0.3290000000000002,2.212 -0.983,2.872 l-0.05900000000000003,0.05800000000000003 c-0.02000000000000001,0.012000000000000005 -0.03800000000000001,0.025000000000000015 -0.05800000000000003,0.03900000000000002 c-0.35700000000000015,0.23 -0.6910000000000006,0.456 -1.002,0.6750000000000006 h-0.01900000000000001 c-0.35300000000000015,0.25 -0.6810000000000006,0.47600000000000015 -0.983,0.6740000000000006 c-0.03100000000000002,0.01600000000000001 -0.06300000000000004,0.035 -0.09600000000000009,0.05800000000000003 c-0.15100000000000008,0.05900000000000003 -0.29900000000000015,0.136 -0.44300000000000017,0.231 c-0.10400000000000002,0.03200000000000002 -0.20700000000000007,0.06900000000000005 -0.30900000000000016,0.11500000000000005 c-1.498,0.7090000000000003 -3.11,1.063 -4.837,1.06 c-1.24,-0.0020000000000000013 -2.448,-0.137 -3.623,-0.403 c-1.572,-0.3480000000000003 -3.069,-0.9450000000000003 -4.49,-1.7930000000000001 c-0.256,-0.15400000000000008 -0.513,-0.30900000000000016 -0.771,-0.463 c-0.6840000000000006,-0.47900000000000015 -1.262,-0.993 -1.734,-1.541 v0.02000000000000001 c-0.9620000000000003,-1.145 -1.443,-2.448 -1.445,-3.9130000000000003 c0.0010000000000000007,-0.989 0.3350000000000003,-1.721 1.003,-2.196 v-0.02000000000000001 c0.8600000000000003,-0.47800000000000015 1.979,-0.7150000000000003 3.353,-0.7120000000000003 C50.931149375915524,38.705436138153075 52.055149375915526,39.19243613815308 53.33514937591553,39.59043613815307 zM69.87014937591553,21.746436138153076 l0.01900000000000001,0.02000000000000001 c1.7630000000000003,1.518 2.688,3.034 2.775,4.546 c-0.14300000000000004,1.585 -1.1640000000000001,3.235 -3.064,4.953 c-0.08700000000000006,0.08400000000000005 -0.17,0.17500000000000004 -0.25,0.27 c-0.06800000000000005,0.08300000000000005 -0.133,0.1600000000000001 -0.1920000000000001,0.232 c-0.17600000000000007,0.14200000000000004 -0.3360000000000003,0.263 -0.48100000000000015,0.36600000000000016 c-0.03200000000000002,0.02700000000000002 -0.06400000000000004,0.05300000000000003 -0.09700000000000009,0.07700000000000004 c-1.003,0.771 -2.114,1.3880000000000001 -3.334,1.851 c-0.403,0.11700000000000005 -0.8140000000000003,0.233 -1.233,0.3460000000000003 c-1.201,0.3330000000000003 -2.402,0.531 -3.604,0.5980000000000003 h-0.01900000000000001 c-1.6110000000000002,0.11400000000000005 -3.211,-0.015000000000000008 -4.799,-0.3860000000000002 c-0.04500000000000003,-0.013000000000000008 -0.09100000000000008,-0.025000000000000015 -0.135,-0.03800000000000001 c-0.232,-0.04300000000000003 -0.464,-0.08700000000000006 -0.6940000000000006,-0.135 c-0.23,-0.07400000000000002 -0.456,-0.15000000000000008 -0.6740000000000006,-0.232 c0.8860000000000003,-0.48800000000000016 1.6560000000000001,-1.162 2.3120000000000003,-2.023 c0.011000000000000008,-0.02000000000000001 0.02300000000000002,-0.03900000000000002 0.04000000000000002,-0.05700000000000002 c0.8540000000000003,-1.138 1.407,-2.507 1.6560000000000001,-4.104 c0.529,0.22000000000000008 1.3,0.554 2.313,1.001 c0.6780000000000006,0.30100000000000016 1.358,0.3200000000000002 2.043,0.05900000000000003 c0.6800000000000006,-0.267 1.1680000000000001,-0.7350000000000003 1.464,-1.408 c0.30200000000000016,-0.6760000000000006 0.3210000000000002,-1.356 0.05900000000000003,-2.043 c-0.268,-0.6790000000000006 -0.7360000000000003,-1.167 -1.407,-1.463 c-2.349,-1.043 -3.769,-1.596 -4.259,-1.6580000000000006 c-0.08300000000000005,-0.010000000000000005 -0.16700000000000012,-0.01600000000000001 -0.25,-0.02000000000000001 c-0.1,-0.009000000000000008 -0.1960000000000001,-0.015000000000000008 -0.28900000000000015,-0.02000000000000001 c-0.014000000000000005,-0.046000000000000034 -0.02600000000000002,-0.09200000000000008 -0.03900000000000002,-0.134 c-0.006000000000000006,-0.03000000000000002 -0.013000000000000008,-0.062000000000000034 -0.02000000000000001,-0.09600000000000009 c-0.28400000000000014,-0.918 -0.6890000000000006,-1.843 -1.214,-2.776 C61.82214937591553,17.988436138153077 66.27914937591552,18.745436138153075 69.87014937591553,21.746436138153076 zM22.465149375915527,60.24743613815308 l-0.02000000000000001,-0.02000000000000001 c-2.014,-2.718 -2.707,-4.901 -2.082,-6.552 c0.3450000000000003,-0.6500000000000004 0.41000000000000014,-1.3250000000000002 0.1930000000000001,-2.023 c-0.21400000000000008,-0.7030000000000003 -0.6440000000000003,-1.229 -1.291,-1.5790000000000002 c-0.6480000000000004,-0.3450000000000003 -1.323,-0.40900000000000014 -2.023,-0.1920000000000001 c-0.7020000000000003,0.21500000000000008 -1.229,0.6460000000000004 -1.58,1.29 c-0.5980000000000003,0.9620000000000003 -0.9450000000000003,2.002 -1.04,3.122 c-1.983,-0.5890000000000003 -3.332,-1.782 -4.047,-3.585 l0.01900000000000001,0.02000000000000001 c-1.1280000000000001,-3.356 -1.5,-6.689 -1.118,-10 v-0.02000000000000001 c0.42300000000000015,-3.3770000000000002 1.336,-6.473 2.737,-9.289 l0.01900000000000001,-0.01800000000000001 c1.264,-2.583 2.856,-3.952 4.779,-4.105 c0.47000000000000014,0.06300000000000004 0.9510000000000003,0.281 1.445,0.6550000000000004 c-0.3900000000000002,1.352 -0.7500000000000003,2.777 -1.079,4.2780000000000005 c-0.15400000000000008,0.7150000000000003 -0.03200000000000002,1.3840000000000001 0.36600000000000016,2.004 c0.3940000000000003,0.6240000000000003 0.9460000000000003,1.015 1.657,1.176 c0.7160000000000003,0.15500000000000008 1.3840000000000001,0.03300000000000002 2.004,-0.36600000000000016 c0.6220000000000003,-0.3950000000000003 1.014,-0.9450000000000003 1.175,-1.6580000000000006 c1.7040000000000002,-7.783 4.267,-13.114 7.689,-15.994 l0.02000000000000001,-0.02000000000000001 c3.274,-2.6660000000000004 6.159,-4.048 8.652000000000001,-4.143 c3.556,0.054000000000000034 6.831,1.6470000000000002 9.828,4.78 c0.526,0.546 1.003,1.093 1.4260000000000002,1.6380000000000003 c0.013000000000000008,0.01800000000000001 0.025000000000000015,0.03800000000000001 0.03800000000000001,0.05700000000000002 c0.054000000000000034,0.07500000000000002 0.11100000000000004,0.14600000000000007 0.17400000000000004,0.21200000000000008 c1.057,1.347 1.795,2.665 2.216,3.95 l-0.02000000000000001,-0.09600000000000009 c0.126,0.4450000000000002 0.2230000000000001,0.8880000000000003 0.28900000000000015,1.3290000000000002 c-0.0020000000000000013,0.035 -0.0020000000000000013,0.06600000000000004 0,0.09700000000000009 c0.02200000000000002,0.24100000000000008 0.03600000000000001,0.49100000000000016 0.03900000000000002,0.7510000000000003 c-0.0010000000000000007,1.236 -0.271,2.258 -0.81,3.063 l0.03800000000000001,-0.03800000000000001 c-0.464,0.6100000000000003 -1.119,0.8990000000000004 -1.965,0.8670000000000003 c-0.3870000000000002,0.005000000000000003 -0.7600000000000003,-0.04100000000000002 -1.118,-0.135 l-0.05800000000000003,-0.02000000000000001 h-0.02000000000000001 c-0.794,-0.27 -1.5390000000000001,-0.7590000000000003 -2.235,-1.463 h-0.01900000000000001 c-1.7120000000000002,-1.6950000000000007 -2.958,-2.91 -3.739,-3.644 c-0.10800000000000004,-0.253 -0.263,-0.48900000000000016 -0.462,-0.7120000000000003 c-0.456,-0.506 -1.021,-0.795 -1.6960000000000006,-0.8670000000000003 c-0.6780000000000006,-0.07500000000000002 -1.294,0.08400000000000005 -1.85,0.48200000000000015 c-0.551,0.403 -0.8980000000000004,0.937 -1.041,1.5990000000000002 c-0.278,0.9500000000000003 -0.13,2.24 0.44300000000000017,3.874 l0.02000000000000001,0.03900000000000002 c0.28300000000000014,0.772 0.44300000000000017,1.3370000000000002 0.48200000000000015,1.6950000000000007 c-0.05100000000000003,1.6560000000000001 -0.7300000000000003,3.371 -2.043,5.146 l-0.02000000000000001,0.01800000000000001 c-1.237,1.624 -2.516,2.5700000000000003 -3.835,2.833 c-0.7230000000000003,0.09700000000000009 -1.307,0.43800000000000017 -1.754,1.021 c-0.451,0.5840000000000003 -0.6320000000000003,1.239 -0.539,1.9660000000000002 c0.09700000000000009,0.7230000000000003 0.43700000000000017,1.307 1.021,1.754 c0.5840000000000003,0.45 1.239,0.6310000000000003 1.967,0.539 c2.3440000000000003,-0.22000000000000008 4.559,-1.549 6.648,-3.988 c-0.03900000000000002,0.3480000000000003 -0.05900000000000003,0.7070000000000003 -0.05900000000000003,1.078 c0,1.528 0.275,2.96 0.8290000000000003,4.298 c-0.19000000000000009,0.10800000000000004 -0.37600000000000017,0.2250000000000001 -0.56,0.3470000000000003 c-2.209,1.3450000000000002 -3.313,3.521 -3.314,6.532 c-0.004000000000000003,0.29400000000000015 0.0020000000000000013,0.5830000000000003 0.02000000000000001,0.8670000000000003 c-1.6910000000000007,0.2290000000000001 -3.13,1.089 -4.316,2.583 l-0.01900000000000001,0.01900000000000001 c-1.259,1.5150000000000001 -1.8880000000000003,3.428 -1.8890000000000002,5.743 c-0.009000000000000008,0.5780000000000003 0.04900000000000002,1.1560000000000001 0.17300000000000001,1.734 C27.270149375915526,63.48543613815308 24.353149375915528,62.50843613815307 22.465149375915527,60.24743613815308 zM45.165149375915526,68.76543613815308 c-2.03,-0.04400000000000003 -4.002,-0.925 -5.917,-2.641 v0.02000000000000001 c-0.8460000000000003,-0.772 -1.52,-1.5310000000000001 -2.023,-2.273 l-0.03800000000000001,-0.05900000000000003 c-0.03300000000000002,-0.04900000000000002 -0.06500000000000004,-0.09400000000000008 -0.09700000000000009,-0.135 c-0.465,-0.7510000000000003 -0.7090000000000003,-1.496 -0.7320000000000003,-2.235 c-0.0010000000000000007,-0.9630000000000003 0.23600000000000004,-1.7680000000000002 0.7140000000000003,-2.408 l0.01900000000000001,-0.02000000000000001 c0.3240000000000002,-0.41100000000000014 0.7230000000000003,-0.6300000000000003 1.195,-0.6550000000000004 c0.12000000000000002,-0.0020000000000000013 0.21700000000000008,-0.0020000000000000013 0.28900000000000015,0 c0.04300000000000003,0.01700000000000001 0.08800000000000006,0.03600000000000001 0.135,0.05700000000000002 c0.15100000000000008,0.07700000000000004 0.30600000000000016,0.14100000000000001 0.463,0.1930000000000001 c1.007,1.421 2.414,2.693 4.22,3.816 l0.02000000000000001,0.01800000000000001 c2.225,1.351 4.5760000000000005,2.231 7.053,2.641 c0.06100000000000003,0.09100000000000008 0.132,0.18000000000000008 0.21200000000000008,0.27 l-0.01900000000000001,0.02000000000000001 c-0.025000000000000015,0.8450000000000003 -0.3850000000000002,1.576 -1.08,2.196 c-1.02,0.7550000000000003 -2.478,1.153 -4.374,1.196 H45.165149375915526 z" id="svg_1" class=""/></g></svg>