<svg xmlns="http://www.w3.org/2000/svg" xmlns:xlink="http://www.w3.org/1999/xlink" version="1.1" enable-background="new 0 0 90 90" xml:space="preserve" width="82" height="82" style=""><rect id="backgroundrect" width="100%" height="100%" x="0" y="0" fill="none" stroke="none" class="" style=""/><g class="currentLayer" style=""><title>Layer 1</title><path d="M0.7182685766220089,50.58434820556641 c1.322,4.128 4.646,6.277 9.975,6.446 c0.16800000000000012,0.006000000000000006 0.3320000000000003,-0.005000000000000003 0.49000000000000016,-0.03300000000000002 c0.457,0.6930000000000006 0.998,1.36 1.625,2.003 c2.34,2.4210000000000003 5.09,3.624 8.252,3.608 c0.3200000000000002,0.007000000000000006 0.8300000000000003,-0.04800000000000002 1.525,-0.1630000000000001 c0.35200000000000015,-0.05700000000000002 0.5760000000000003,-0.09000000000000007 0.6740000000000006,-0.09900000000000009 c0.06300000000000004,0 0.12100000000000002,0 0.18000000000000008,0 c0.5640000000000003,1.052 1.357,2.106 2.379,3.166 l0.01600000000000001,0.01600000000000001 c2.459,2.563 5.133,3.8200000000000003 8.023,3.773 c2.523,-0.011000000000000008 4.732,-0.7150000000000003 6.627,-2.116 c2.18,-1.6030000000000002 3.23,-3.467 3.151,-5.594 c0,-0.03600000000000001 0,-0.07500000000000002 0,-0.11500000000000005 c2.7600000000000002,-0.09200000000000008 5.275,-0.8300000000000003 7.547,-2.214 l0.01700000000000001,-0.01800000000000001 c3.037,-1.905 4.509,-4.229 4.413,-6.9719999999999995 c0.01800000000000001,-0.9470000000000003 -0.135,-1.859 -0.46,-2.741 c2.6980000000000004,0.506 5.454,0.9420000000000003 8.269,1.3130000000000002 c5.816,0.7630000000000003 9.765,0.981 11.845,0.6560000000000004 c0.011000000000000008,-0.006000000000000006 0.02200000000000002,-0.012000000000000005 0.03300000000000002,-0.01700000000000001 c2.6980000000000004,-0.41800000000000015 4.771,-1.9220000000000002 6.218,-4.511 l-0.01700000000000001,0.01600000000000001 c1.526,-2.55 1.494,-5.431 -0.09900000000000009,-8.646 c-1.287,-3.1630000000000003 -5.454,-5.006 -12.501,-5.5280000000000005 c-0.08200000000000005,-0.007000000000000006 -0.1650000000000001,-0.012000000000000005 -0.24600000000000008,-0.01700000000000001 c4.924,-1.5190000000000001 7.921,-3.4290000000000003 8.99,-5.725 l0.01700000000000001,-0.01700000000000001 c1.7200000000000002,-3.199 1.9540000000000002,-5.775 0.7060000000000003,-7.726 c-1.017,-1.8890000000000002 -2.542,-3.189 -4.577,-3.9050000000000002 h0.03200000000000002 c-1.733,-0.6460000000000004 -3.706,-0.93 -5.923,-0.8530000000000003 h-0.03300000000000002 c-2.013,0.01800000000000001 -6.038,1.063 -12.073,3.132 c-4.726,1.618 -8.647,3.193 -11.764,4.726 c-0.777,-1.395 -1.8610000000000002,-2.815 -3.248,-4.265 c-3.529,-3.685 -7.412,-5.504 -11.648,-5.464 c-2.996,-0.07900000000000004 -6.402,1.4260000000000002 -10.221,4.5120000000000005 c-2.262,1.7560000000000002 -4.152,4.462 -5.678,8.12 c-0.92,-0.47900000000000015 -1.844,-0.6980000000000006 -2.771,-0.6560000000000004 c-3.387,-0.13 -6.111,1.8760000000000003 -8.17,6.021 c-1.4,2.843 -2.314,5.9719999999999995 -2.74,9.385 C-0.8847314233779909,43.57134820556641 -0.4967314233779909,47.07134820556641 0.7182685766220089,50.58434820556641 zM33.90626857662201,59.29434820556641 h0.01800000000000001 c1.533,0.803 3.141,1.387 4.822,1.7570000000000001 c0.09200000000000008,0.18800000000000008 0.21100000000000008,0.37000000000000016 0.36100000000000015,0.541 c-0.07800000000000004,0.7150000000000003 -0.516,1.365 -1.3130000000000002,1.953 c-1.125,0.8290000000000003 -2.436,1.238 -3.938,1.23 c-1.697,-0.04700000000000002 -3.283,-0.8400000000000003 -4.758,-2.38 L29.08326857662201,62.380348205566406 c-1.363,-1.413 -2.08,-2.791 -2.15,-4.136 c0,-0.806 0.201,-1.489 0.6070000000000003,-2.051 l0.01600000000000001,-0.01600000000000001 c0.277,-0.3340000000000003 0.6150000000000003,-0.508 1.018,-0.524 c0.18800000000000008,-0.0010000000000000007 0.31300000000000017,-0.0010000000000000007 0.37700000000000017,0 c0.02000000000000001,0.004000000000000003 0.035,0.010000000000000005 0.05100000000000003,0.01700000000000001 h-0.06600000000000004 c0.256,0.126 0.514,0.203 0.771,0.2290000000000001 C30.65426857662201,57.1833482055664 32.05426857662201,58.314348205566404 33.90626857662201,59.29434820556641 zM6.36126857662201,32.70234820556641 c1.092,-2.204 2.459,-3.369 4.102,-3.496 c0.4,0.054000000000000034 0.811,0.24000000000000007 1.23,0.558 c-0.3320000000000003,1.15 -0.6390000000000003,2.365 -0.92,3.6430000000000002 c-0.131,0.6080000000000003 -0.02700000000000002,1.177 0.31300000000000017,1.706 c0.3360000000000003,0.53 0.807,0.8640000000000003 1.4100000000000001,1.001 c0.6090000000000003,0.132 1.18,0.02800000000000001 1.707,-0.31100000000000017 c0.529,-0.3360000000000003 0.8630000000000003,-0.807 1.002,-1.412 c1.453,-6.635 3.641,-11.19 6.561,-13.665000000000001 c2.789,-2.252 5.244,-3.417 7.367,-3.496 c3.025,0.046000000000000034 5.814,1.4020000000000001 8.367,4.069 v-0.01700000000000001 c1.6190000000000002,1.693 2.707,3.329 3.2640000000000002,4.905 c0.006000000000000006,0.01700000000000001 0.012000000000000005,0.03300000000000002 0.01800000000000001,0.04900000000000002 c0.17,0.6080000000000003 0.26,1.215 0.262,1.8210000000000002 c0,1.042 -0.2250000000000001,1.8940000000000001 -0.6720000000000006,2.56 c-0.3930000000000002,0.508 -0.9470000000000003,0.7490000000000003 -1.6580000000000006,0.7210000000000003 c-1.072,-0.02700000000000002 -2.051,-0.47600000000000015 -2.936,-1.344 c-1.441,-1.428 -2.496,-2.456 -3.166,-3.085 c-0.09000000000000007,-0.232 -0.2290000000000001,-0.452 -0.41000000000000014,-0.6570000000000005 c-0.3890000000000002,-0.43100000000000016 -0.8710000000000003,-0.6760000000000006 -1.443,-0.7380000000000003 c-0.5780000000000003,-0.06400000000000004 -1.104,0.07300000000000002 -1.576,0.41000000000000014 c-0.46900000000000014,0.3440000000000003 -0.7640000000000003,0.798 -0.8850000000000003,1.362 c-0.24000000000000007,0.799 -0.11900000000000006,1.904 0.35900000000000015,3.313 c0.014000000000000005,0.015000000000000008 0.02300000000000002,0.03200000000000002 0.03300000000000002,0.05000000000000003 c0.24200000000000008,0.6580000000000005 0.37900000000000017,1.139 0.41000000000000014,1.443 c-0.04100000000000002,1.4100000000000001 -0.6310000000000003,2.87 -1.771,4.381 c-1.049,1.3820000000000001 -2.143,2.19 -3.281,2.428 c-0.6110000000000003,0.09000000000000007 -1.105,0.3850000000000002 -1.477,0.8860000000000003 c-0.38100000000000017,0.505 -0.527,1.069 -0.44300000000000017,1.6900000000000006 c0.09000000000000007,0.6110000000000003 0.3850000000000002,1.104 0.8870000000000003,1.477 c0.506,0.37900000000000017 1.068,0.527 1.689,0.44200000000000017 c2.23,-0.24300000000000008 4.309,-1.6440000000000001 6.234,-4.2 c1.34,-1.771 2.182,-3.511 2.525,-5.217 c1.596,1.2810000000000001 3.346,1.9100000000000001 5.25,1.887 c2.2560000000000002,-0.02200000000000002 4.017,-0.8640000000000003 5.283,-2.526 l0.01800000000000001,-0.03300000000000002 c1.038,-1.346 1.5590000000000002,-3.097 1.5590000000000002,-5.25 c0.0010000000000000007,-0.42500000000000016 -0.02100000000000001,-0.8520000000000003 -0.06500000000000004,-1.279 c3.044,-1.542 6.965,-3.133 11.763,-4.774 c5.393,-1.855 8.969,-2.823 10.729,-2.9050000000000002 h0.03200000000000002 c1.578,-0.05200000000000003 2.983,0.14500000000000007 4.217,0.5910000000000003 h0.03300000000000002 c0.9380000000000003,0.3340000000000003 1.645,0.937 2.115,1.8050000000000002 c0.28700000000000014,0.8420000000000003 0.04000000000000002,1.984 -0.7370000000000003,3.4290000000000003 l0.01700000000000001,-0.015000000000000008 c-1.169,1.7570000000000001 -4.439,3.255 -9.811,4.494 l0.01700000000000001,-0.01600000000000001 c-6.3420000000000005,1.437 -12.319,3.027 -17.933,4.774 c-0.559,0.17600000000000007 -0.985,0.521 -1.279,1.033 c-0.30000000000000016,0.512 -0.3870000000000002,1.054 -0.263,1.624 c0.134,0.5720000000000003 0.4450000000000002,1.025 0.937,1.363 c0.48100000000000015,0.3410000000000003 1.012,0.47200000000000014 1.5910000000000002,0.3930000000000002 c8.668,-1.22 15.882,-1.629 21.639,-1.23 c4.776,0.35300000000000015 7.696,1.354 8.762,3.002 c0.8130000000000003,1.6440000000000001 0.8910000000000003,3.112 0.2290000000000001,4.414 l-0.01700000000000001,0.01600000000000001 c-0.6960000000000006,1.262 -1.6870000000000007,2.011 -2.9690000000000003,2.248 l0.03200000000000002,-0.01800000000000001 c-1.856,0.24400000000000008 -5.39,0.025000000000000015 -10.598,-0.6550000000000004 c-5.378,-0.7070000000000003 -10.54,-1.657 -15.486,-2.854 c-0.46,-0.15100000000000008 -0.9410000000000003,-0.266 -1.445,-0.3450000000000003 c-0.04100000000000002,-0.007000000000000006 -0.07800000000000004,-0.012000000000000005 -0.11300000000000004,-0.01700000000000001 c-0.202,-0.02100000000000001 -0.41600000000000015,-0.04400000000000003 -0.6410000000000003,-0.06500000000000004 c-0.6200000000000003,-0.06500000000000004 -1.174,0.09900000000000009 -1.657,0.49200000000000016 c-0.48300000000000015,0.3960000000000003 -0.7580000000000003,0.906 -0.8190000000000003,1.526 c-0.06500000000000004,0.6190000000000003 0.09900000000000009,1.172 0.49100000000000016,1.6550000000000002 c0.3980000000000003,0.48500000000000015 0.907,0.7580000000000003 1.526,0.8210000000000003 c0.171,0.01800000000000001 0.3350000000000003,0.035 0.49200000000000016,0.05000000000000003 c0.03800000000000001,0.007000000000000006 0.07600000000000004,0.012000000000000005 0.11500000000000005,0.01700000000000001 c0.18200000000000008,0.035 0.36200000000000015,0.07800000000000004 0.541,0.131 c0.05000000000000003,0.02200000000000002 0.10400000000000002,0.04400000000000003 0.1640000000000001,0.06500000000000004 c0.81,0.281 1.58,0.7470000000000003 2.313,1.395 l0.01700000000000001,0.01700000000000001 c1.005,0.924 1.529,1.936 1.5750000000000002,3.035 c-0.09500000000000008,1.193 -0.8540000000000003,2.237 -2.281,3.134 l0.01800000000000001,-0.01700000000000001 c-1.725,1.055 -3.649,1.5790000000000002 -5.775,1.5750000000000002 c-2.531,0.005000000000000003 -4.873,-0.553 -7.021,-1.6740000000000006 h0.01600000000000001 c-2.066,-1.093 -3.154,-2.472 -3.2640000000000002,-4.134 c-0.01800000000000001,-0.6260000000000003 0.23600000000000004,-1.08 0.7540000000000003,-1.363 l-0.01600000000000001,0.01800000000000001 c0.7600000000000003,-0.37200000000000016 1.75,-0.558 2.9690000000000003,-0.558 c0.42200000000000015,0.05100000000000003 1.3090000000000002,0.3350000000000003 2.6580000000000004,0.8530000000000003 c0.01600000000000001,0.006000000000000006 0.03100000000000002,0.013000000000000008 0.04900000000000002,0.01600000000000001 c1.311,0.539 2.104,0.8940000000000003 2.379,1.066 c0.47500000000000014,0.41300000000000014 1.021,0.5990000000000003 1.641,0.558 c0.6200000000000003,-0.04700000000000002 1.134,-0.31000000000000016 1.542,-0.786 c0.41400000000000015,-0.47400000000000014 0.5990000000000003,-1.021 0.559,-1.641 c-0.05000000000000003,-0.6190000000000003 -0.31300000000000017,-1.133 -0.788,-1.542 c-0.37600000000000017,-0.3940000000000003 -1.602,-1.017 -3.676,-1.87 c-0.01800000000000001,-0.005000000000000003 -0.03300000000000002,-0.010000000000000005 -0.04900000000000002,-0.01700000000000001 c-2.168,-0.8310000000000003 -3.605,-1.218 -4.314,-1.165 c-2.105,-0.0020000000000000013 -3.807,0.35900000000000015 -5.102,1.083 l-0.01800000000000001,0.01700000000000001 c-2.055,1.112 -3.092,2.879 -3.117,5.298 c-1.6740000000000006,0.07300000000000002 -3.08,0.8130000000000003 -4.215,2.215 l-0.01800000000000001,0.01800000000000001 c-1.006,1.238 -1.541,2.753 -1.6070000000000002,4.543 c-0.1620000000000001,0.02100000000000001 -0.3480000000000003,0.04900000000000002 -0.559,0.08200000000000005 h-0.01600000000000001 c-0.35400000000000015,0.06000000000000003 -0.6110000000000003,0.09300000000000008 -0.771,0.09900000000000009 c-1.912,-0.015000000000000008 -3.58,-0.7590000000000003 -5.004,-2.23 c-1.375,-1.408 -2.113,-3.005 -2.213,-4.79 c-0.03100000000000002,-0.6260000000000003 -0.277,-1.149 -0.7400000000000003,-1.5750000000000002 c-0.461,-0.42400000000000015 -1.004,-0.6200000000000003 -1.6230000000000002,-0.5910000000000003 c-0.6250000000000003,0.029000000000000015 -1.15,0.275 -1.574,0.7370000000000003 s-0.6210000000000003,1.003 -0.5920000000000003,1.624 c0.01600000000000001,0.37900000000000017 0.04900000000000002,0.7510000000000003 0.09800000000000009,1.117 c-2.232,-0.36400000000000016 -3.709,-1.453 -4.428,-3.265 c-0.975,-2.833 -1.2850000000000001,-5.6530000000000005 -0.9380000000000003,-8.465 C4.410268576622009,37.755348205566406 5.18126857662201,35.10834820556641 6.36126857662201,32.70234820556641 z" id="svg_1" class=""/></g></svg>